<?xml version="1.0" encoding="UTF-8" standalone="no"?>
<!DOCTYPE svg PUBLIC "-//W3C//DTD SVG 1.1//EN" "http://www.w3.org/Graphics/SVG/1.1/DTD/svg11.dtd">
<svg version="1.1" xmlns="http://www.w3.org/2000/svg" xmlns:xlink="http://www.w3.org/1999/xlink" preserveAspectRatio="xMidYMid meet" viewBox="-1.0009785473871746 151.98870797088003 644.0011596244491 338.0226058072466" width="640" height="334.02"><defs><path d="M329.76 157.06C324.33 151.63 315.52 151.63 310.08 157.06C279.47 187.68 34.52 432.62 3.91 463.24C-1.43 468.77 -1.28 477.58 4.25 482.92C9.64 488.13 18.19 488.13 23.59 482.92C43.34 463.16 142.12 364.39 319.91 186.6C497.7 364.41 596.48 463.19 616.23 482.95C621.76 488.29 630.57 488.13 635.91 482.61C641.12 477.21 641.12 468.66 635.91 463.27C635.91 463.27 635.92 463.26 635.94 463.24C452.23 279.53 350.17 177.48 329.76 157.06Z" id="cHQk2Vc8e"></path><path d="M616.23 482.95C596.48 463.19 497.7 364.41 319.91 186.6C142.12 364.41 43.34 463.19 23.59 482.95C18.06 488.29 9.25 488.13 3.91 482.61C-1.3 477.21 -1.3 468.66 3.91 463.27C34.52 432.65 279.47 187.71 310.08 157.09C315.52 151.66 324.33 151.66 329.76 157.09C360.38 187.71 605.32 432.65 635.94 463.27C641.37 468.71 641.35 477.52 635.91 482.95C633.3 485.55 629.77 487.01 626.09 487.01C622.39 487.02 618.85 485.56 616.23 482.95Z" id="dmebyNHCp"></path></defs><g><g><use xlink:href="#cHQk2Vc8e" opacity="1" fill="#ffffff" fill-opacity="1"></use><g><use xlink:href="#cHQk2Vc8e" opacity="1" fill-opacity="0" stroke="#000000" stroke-width="1" stroke-opacity="0"></use></g></g><g><use xlink:href="#dmebyNHCp" opacity="1" fill="#ffffff" fill-opacity="1"></use><g><use xlink:href="#dmebyNHCp" opacity="1" fill-opacity="0" stroke="#000000" stroke-width="1" stroke-opacity="0"></use></g></g></g></svg>